# xmcd CD database file
# Copyright (C) 1993-1998 Ti Kan
# 
# Track frame offsets:
#     150
#     12250
#     25962
#     38137
#     51925
#     61862
#     75512
#     85862
#     99900
#     112037
#     125462
#     136110
#     145475
#     159962
#     174020
#     187250
# 
# Disc length: 2679 seconds
# 
# Revision: 1
# Processed by: cddbd v1.4b41PL1 Copyright (c) Steve Scherf et al.
# Submitted via: DiscPlay 4.0.4
# 
DISCID=c80a7510
DTITLE=Dolly Parton - The Hits Of Dolly Parton
DYEAR=1900
DGENRE=
TTITLE0=Jolene
TTITLE1=My Tennessee Mountain Home
TTITLE2=Touch your Woman
TTITLE3=The Seeker
TTITLE4=Travelling Man
TTITLE5=Daddy Come And Get Me
TTITLE6=My Blue Tears
TTITLE7=Coat Of Many Colours
TTITLE8=The Bargain Store
TTITLE9=Joshua
TTITLE10=Love Is Like A Butterfly
TTITLE11=Washdat blues
TTITLE12=We Used To
TTITLE13=Mule Skinner Blues
TTITLE14=I Will Always Love You
TTITLE15=Coming For To Carry Me Home
EXTD=
EXTT0=
EXTT1=
EXTT2=
EXTT3=
EXTT4=
EXTT5=
EXTT6=
EXTT7=
EXTT8=
EXTT9=
EXTT10=
EXTT11=
EXTT12=
EXTT13=
EXTT14=
EXTT15=
PLAYORDER=
